<?xml version="1.0" encoding="utf-8"?>
<!-- Generator: Adobe Illustrator 26.0.0, SVG Export Plug-In . SVG Version: 6.00 Build 0)  -->
<svg version="1.1" id="Capa_1" xmlns="http://www.w3.org/2000/svg" xmlns:xlink="http://www.w3.org/1999/xlink" x="0px" y="0px"
	 viewBox="0 0 428 440" style="enable-background:new 0 0 428 440;" xml:space="preserve">
<style type="text/css">
	.st0{fill-rule:evenodd;clip-rule:evenodd;fill:#EF5252;}
</style>
<g>
	<polygon class="st0" points="189.3,440 94.7,373.9 0,307.9 0,175.7 0,0 189.3,0 189.3,70 189.3,146.2 119.3,146.2 119.3,70 70,70 
		70,271.3 119.3,305.8 119.3,195.9 189.3,195.9 189.3,354.6 	"/>
	<polygon class="st0" points="238.7,440 333.3,373.9 428,307.9 428,175.7 428,0 238.7,0 238.7,70 238.7,146.2 308.7,146.2 308.7,70 
		358,70 358,271.3 308.7,305.8 308.7,195.9 238.7,195.9 238.7,354.6 	"/>
	<polygon class="st0" points="70,271.3 70,70 119.3,70 119.3,146.2 189.3,146.2 189.3,70 189.3,0 0,0 0,175.7 0,307.9 94.7,373.9 
		189.3,440 189.3,354.6 189.3,195.9 119.3,195.9 119.3,305.8 	"/>
	<polygon class="st0" points="238.7,70 238.7,146.2 308.7,146.2 308.7,70 358,70 358,271.3 308.7,305.8 308.7,195.9 238.7,195.9 
		238.7,354.6 238.7,440 333.3,373.9 428,307.9 428,175.7 428,0 238.7,0 	"/>
</g>
</svg>
